<svg xmlns="http://www.w3.org/2000/svg" viewBox="0 0 520 340" width="520" height="340" font-family="IBM Plex Sans KR, Malgun Gothic, Apple SD Gothic Neo, sans-serif"><rect width="520" height="340" fill="#EEF2F6"/><rect x="118" y="14" width="284" height="312" rx="5" fill="#FFF" stroke="#C6D2DE" stroke-width="1.6"/><text x="260" y="44" font-size="15" fill="#141C24" font-weight="700" text-anchor="middle">디벗 반납 확인서</text><rect x="196" y="49" width="128" height="1.6" fill="#141C24"/><text x="260" y="63" font-size="7.5" fill="#7F8C99" font-weight="400" text-anchor="middle">(전입학교 디벗 담당선생님께 제출합니다.)</text><text x="150" y="88" font-size="10" fill="#0F6FB8" font-weight="700" text-anchor="start">3</text><text x="158" y="88" font-size="9" fill="#55636F" font-weight="400" text-anchor="start">학년</text><rect x="146" y="91" width="14" height="1.6" rx="0.8" fill="#8FA6BC"/><text x="186" y="88" font-size="10" fill="#0F6FB8" font-weight="700" text-anchor="start">2</text><text x="194" y="88" font-size="9" fill="#55636F" font-weight="400" text-anchor="start">반</text><rect x="182" y="91" width="14" height="1.6" rx="0.8" fill="#8FA6BC"/><text x="214" y="88" font-size="10" fill="#0F6FB8" font-weight="700" text-anchor="start">11</text><text x="228" y="88" font-size="9" fill="#55636F" font-weight="400" text-anchor="start">번</text><rect x="210" y="91" width="16" height="1.6" rx="0.8" fill="#8FA6BC"/><text x="256" y="88" font-size="9" fill="#55636F" font-weight="400" text-anchor="start">이름 :</text><text x="288" y="88" font-size="10" fill="#0F6FB8" font-weight="700" text-anchor="start">홍길동</text><rect x="282" y="91" width="52" height="1.6" rx="0.8" fill="#8FA6BC"/><rect x="134" y="104" width="252" height="34" rx="3" fill="#FFF" stroke="#DDE4EC" stroke-width="1.4"/><rect x="134" y="104" width="104" height="34" rx="3" fill="#F5F8FB" stroke="#DDE4EC" stroke-width="1.4"/><text x="140" y="124" font-size="7.2" fill="#141C24" font-weight="600" text-anchor="start">1. 구성품을 모두 제출하였나요?</text><rect x="246" y="115" width="11" height="11" rx="2" fill="#FFF" stroke="#7F8C99" stroke-width="1.3"/><path d="M248.4 120.6l2.6 2.6 4.1-5" fill="none" stroke="#1F7A5B" stroke-width="2" stroke-linecap="round" stroke-linejoin="round"/><text x="261" y="124" font-size="7.5" fill="#55636F" font-weight="400" text-anchor="start">본체</text><rect x="282" y="115" width="11" height="11" rx="2" fill="#FFF" stroke="#7F8C99" stroke-width="1.3"/><path d="M284.4 120.6l2.6 2.6 4.1-5" fill="none" stroke="#1F7A5B" stroke-width="2" stroke-linecap="round" stroke-linejoin="round"/><text x="297" y="124" font-size="7.5" fill="#55636F" font-weight="400" text-anchor="start">충전기</text><rect x="318" y="115" width="11" height="11" rx="2" fill="#FFF" stroke="#7F8C99" stroke-width="1.3"/><path d="M320.4 120.6l2.6 2.6 4.1-5" fill="none" stroke="#1F7A5B" stroke-width="2" stroke-linecap="round" stroke-linejoin="round"/><text x="333" y="124" font-size="7.5" fill="#55636F" font-weight="400" text-anchor="start">펜</text><rect x="354" y="115" width="11" height="11" rx="2" fill="#FFF" stroke="#7F8C99" stroke-width="1.3"/><path d="M356.4 120.6l2.6 2.6 4.1-5" fill="none" stroke="#1F7A5B" stroke-width="2" stroke-linecap="round" stroke-linejoin="round"/><text x="369" y="124" font-size="7.5" fill="#55636F" font-weight="400" text-anchor="start">케이스</text><rect x="134" y="140" width="252" height="34" rx="3" fill="#FFF" stroke="#DDE4EC" stroke-width="1.4"/><rect x="134" y="140" width="104" height="34" rx="3" fill="#F5F8FB" stroke="#DDE4EC" stroke-width="1.4"/><text x="140" y="160" font-size="7.2" fill="#141C24" font-weight="600" text-anchor="start">2. 기기 상태는 양호한가요?</text><rect x="246" y="151" width="11" height="11" rx="2" fill="#FFF" stroke="#7F8C99" stroke-width="1.3"/><path d="M248.4 156.6l2.6 2.6 4.1-5" fill="none" stroke="#1F7A5B" stroke-width="2" stroke-linecap="round" stroke-linejoin="round"/><text x="261" y="160" font-size="7.5" fill="#55636F" font-weight="400" text-anchor="start">예</text><rect x="298" y="151" width="11" height="11" rx="2" fill="#FFF" stroke="#7F8C99" stroke-width="1.3"/><text x="313" y="160" font-size="7.5" fill="#55636F" font-weight="400" text-anchor="start">아니오</text><rect x="134" y="176" width="252" height="34" rx="3" fill="#FFF" stroke="#DDE4EC" stroke-width="1.4"/><rect x="134" y="176" width="104" height="34" rx="3" fill="#F5F8FB" stroke="#DDE4EC" stroke-width="1.4"/><text x="140" y="196" font-size="7.2" fill="#141C24" font-weight="600" text-anchor="start">3. 개인 데이터는 삭제하였나요?</text><rect x="246" y="187" width="11" height="11" rx="2" fill="#FFF" stroke="#7F8C99" stroke-width="1.3"/><path d="M248.4 192.6l2.6 2.6 4.1-5" fill="none" stroke="#1F7A5B" stroke-width="2" stroke-linecap="round" stroke-linejoin="round"/><text x="261" y="196" font-size="7.5" fill="#55636F" font-weight="400" text-anchor="start">예</text><rect x="298" y="187" width="11" height="11" rx="2" fill="#FFF" stroke="#7F8C99" stroke-width="1.3"/><text x="313" y="196" font-size="7.5" fill="#55636F" font-weight="400" text-anchor="start">아니오</text><rect x="134" y="212" width="252" height="34" rx="3" fill="#FFF" stroke="#DDE4EC" stroke-width="1.4"/><rect x="134" y="212" width="104" height="34" rx="3" fill="#F5F8FB" stroke="#DDE4EC" stroke-width="1.4"/><text x="140" y="232" font-size="7.2" fill="#141C24" font-weight="600" text-anchor="start">4. 계정을 로그아웃하였나요?</text><rect x="246" y="223" width="11" height="11" rx="2" fill="#FFF" stroke="#7F8C99" stroke-width="1.3"/><path d="M248.4 228.6l2.6 2.6 4.1-5" fill="none" stroke="#1F7A5B" stroke-width="2" stroke-linecap="round" stroke-linejoin="round"/><text x="261" y="232" font-size="7.5" fill="#55636F" font-weight="400" text-anchor="start">예</text><rect x="298" y="223" width="11" height="11" rx="2" fill="#FFF" stroke="#7F8C99" stroke-width="1.3"/><text x="313" y="232" font-size="7.5" fill="#55636F" font-weight="400" text-anchor="start">아니오</text><text x="140" y="270" font-size="9" fill="#55636F" font-weight="400" text-anchor="start">학생 :</text><text x="176" y="270" font-size="9.5" fill="#0F6FB8" font-weight="700" text-anchor="start">홍길동</text><rect x="170" y="273" width="46" height="1.6" rx="0.8" fill="#8FA6BC"/><text x="226" y="270" font-size="7.5" fill="#9AA7B8" font-weight="400" text-anchor="start">(서명)</text><text x="262" y="270" font-size="9" fill="#55636F" font-weight="400" text-anchor="start">보호자 :</text><text x="308" y="270" font-size="9.5" fill="#0F6FB8" font-weight="700" text-anchor="start">홍판서</text><rect x="302" y="273" width="46" height="1.6" rx="0.8" fill="#8FA6BC"/><text x="358" y="270" font-size="7.5" fill="#9AA7B8" font-weight="400" text-anchor="start">(서명)</text><text x="260" y="298" font-size="9.5" fill="#141C24" font-weight="500" text-anchor="middle">2 0 2 6 년   2 월   1 3 일</text><text x="260" y="320" font-size="12" fill="#141C24" font-weight="800" text-anchor="middle">○ ○ 중 학 교</text><text x="260" y="334" font-size="7.5" fill="#7F8C99" font-weight="400" text-anchor="middle">과학정보부</text><rect x="14" y="18" width="92" height="24" rx="12" fill="#0F6FB8"/><text x="60" y="34" font-size="10" fill="#FFF" font-weight="700" text-anchor="middle">작성 예시</text><text x="14" y="62" font-size="8" fill="#55636F" font-weight="400" text-anchor="start">· 학년·반·번호와 이름을</text><text x="14" y="76" font-size="8" fill="#55636F" font-weight="400" text-anchor="start">  먼저 적습니다</text><text x="14" y="98" font-size="8" fill="#55636F" font-weight="400" text-anchor="start">· 구성품은 실제로 받은</text><text x="14" y="112" font-size="8" fill="#55636F" font-weight="400" text-anchor="start">  것만 체크합니다</text><text x="14" y="134" font-size="8" fill="#55636F" font-weight="400" text-anchor="start">· 학생과 보호자가</text><text x="14" y="148" font-size="8" fill="#55636F" font-weight="400" text-anchor="start">  각각 서명합니다</text></svg>